<svg height="511pt" viewBox="0 -96 511.99971 511" width="511pt" xmlns="http://www.w3.org/2000/svg"><path d="m492.691406 245.410156c0 15.808594-1.546875 31.253906-4.515625 46.199219h-170.464843c9.601562-12.914063 15.292968-28.910156 15.292968-46.199219 0-42.777344-34.792968-77.570312-77.570312-77.570312-63.230469 0-100.457032 72.433594-62.277344 123.769531h-170.464844c-2.96875-14.945313-4.515625-30.390625-4.515625-46.199219 0-25.964844 4.191407-50.972656 11.9375-74.371094 31.273438-94.515624 120.457031-162.894531 225.320313-162.894531 130.828125 0 237.257812 106.441407 237.257812 237.265625zm0 0" fill="#f44545"/><path d="m193.15625 291.609375h-170.464844c-2.96875-14.945313-4.515625-30.390625-4.515625-46.199219 0-25.964844 4.191407-50.972656 11.9375-74.371094 33.242188-.625 97.160157 5.628907 150.183594 55.023438-5.6875 22.132812-1.457031 46.296875 12.859375 65.546875zm0 0" fill="#d63030"/><path d="m460.753906 245.410156c0 15.878906-1.808594 31.34375-5.25 46.199219h-137.792968c9.601562-12.914063 15.292968-28.910156 15.292968-46.199219 0-42.777344-34.792968-77.570312-77.570312-77.570312-63.230469 0-100.464844 72.421875-62.277344 123.769531h-137.792969c-3.441406-14.855469-5.25-30.320313-5.25-46.199219 0-25.550781 4.6875-50.027344 13.253907-72.601562 29.394531-77.5 104.398437-132.726563 192.066406-132.726563 113.21875 0 205.320312 92.109375 205.320312 205.328125zm0 0" fill="#ffc14f"/><path d="m428.816406 245.410156c0 16-2.160156 31.484375-6.222656 46.199219h-104.882812c9.601562-12.914063 15.292968-28.910156 15.292968-46.199219 0-42.777344-34.792968-77.570312-77.570312-77.570312-63.230469 0-100.464844 72.421875-62.277344 123.769531h-104.882812c-4.0625-14.714844-6.222657-30.199219-6.222657-46.199219 0-23.5 4.675781-45.902344 13.144531-66.335937 26.042969-62.851563 87.976563-107.054688 160.238282-107.054688 95.761718 0 173.382812 77.628907 173.382812 173.390625zm0 0" fill="#1ed688"/><path d="m396.878906 245.410156c0 16.171875-2.722656 31.71875-7.753906 46.199219h-71.414062c9.601562-12.914063 15.292968-28.910156 15.292968-46.199219 0-42.777344-34.792968-77.570312-77.570312-77.570312-63.230469 0-100.464844 72.421875-62.277344 123.769531h-71.414062c-5.027344-14.480469-7.753907-30.027344-7.753907-46.199219 0-19.738281 4.0625-38.53125 11.394531-55.617187 21.648438-50.421875 71.796876-85.828125 130.050782-85.828125 77.992187 0 141.445312 63.453125 141.445312 141.445312zm0 0" fill="#2476ed"/><path d="m193.15625 291.609375h-137.792969c-3.441406-14.855469-5.25-30.320313-5.25-46.199219 0-25.550781 4.6875-50.027344 13.253907-72.601562 34.089843 4.242187 78.386718 17.347656 116.929687 53.253906-6.265625 23.875-.285156 47.871094 12.859375 65.546875zm0 0" fill="#ffa90b"/><path d="m193.15625 291.609375h-104.882812c-4.0625-14.714844-6.222657-30.199219-6.222657-46.199219 0-23.5 4.675781-45.902344 13.144531-66.335937 27.460938 7.492187 57.730469 21.488281 85.101563 46.988281-6.152344 23.449219-.472656 47.617188 12.859375 65.546875zm0 0" fill="#1ab975"/><path d="m193.15625 291.609375h-71.414062c-5.027344-14.480469-7.753907-30.027344-7.753907-46.199219 0-19.738281 4.0625-38.53125 11.394531-55.617187 18.492188 8.214843 37.304688 19.859375 54.914063 36.269531-6.238281 23.78125-.332031 47.808594 12.859375 65.546875zm0 0" fill="#0a66ea"/><path d="m364.941406 245.410156c0 16.503906-3.667968 32.148438-10.234375 46.199219h-36.996093c9.601562-12.914063 15.292968-28.910156 15.292968-46.199219 0-42.777344-34.792968-77.570312-77.570312-77.570312-63.46875 0-100.316406 72.621094-62.277344 123.769531h-36.992188c-6.566406-14.050781-10.238281-29.695313-10.238281-46.199219 0-14.207031 2.726563-27.804687 7.671875-40.273437 16.078125-40.515625 55.667969-69.234375 101.835938-69.234375 60.386718 0 109.507812 49.125 109.507812 109.507812zm0 0" fill="#958fca"/><path d="m193.15625 291.609375h-36.992188c-6.566406-14.050781-10.238281-29.695313-10.238281-46.199219 0-14.207031 2.726563-27.804687 7.671875-40.273437 9.070313 5.925781 18.03125 12.851562 26.699219 20.925781-5.65625 21.5625-1.628906 46.066406 12.859375 65.546875zm0 0" fill="#8078bf"/><path d="m209.359375 299.984375c.128906 7.148437-5.632813 12.984375-12.742187 12.984375h-160.972657c-10.027343 0-28.109375-11.273438-28.109375-31.296875 0-4.703125.976563-9.019531 2.6875-12.851563 7.441406-16.640624 28.878906-24.0625 45.300782-13.625.925781.582032 2.140624.0625 2.332031-1.015624 3.589843-19.949219 21.046875-35.09375 42.035156-35.09375 19.4375 0 35.847656 12.980468 41.015625 30.738281.222656.777343.988281 1.277343 1.769531 1.109375 20.40625-4.34375 37.1875 15.535156 30.753907 34.5-.292969.863281.210937 1.761718 1.035156 1.980468.128906.042969.269531.0625.410156.0625h21.320312c7.007813 0 13.03125 5.488282 13.164063 12.507813zm0 0" fill="#97bffd"/><path d="m504.457031 281.671875c0 20.023437-18.078125 31.296875-28.105469 31.296875h-160.972656c-7.121094 0-12.875-5.835938-12.742187-12.984375.128906-7.019531 6.144531-12.507813 13.164062-12.507813h21.316407c.140624 0 .273437-.019531.402343-.0625.824219-.21875 1.339844-1.105468 1.046875-1.980468-6.4375-18.964844 10.347656-38.84375 30.75-34.5.785156.167968 1.539063-.332032 1.769532-1.109375 5.167968-17.757813 21.570312-30.738281 41.007812-30.738281 20.996094 0 38.445312 15.144531 42.035156 35.09375.199219 1.078124 1.417969 1.597656 2.332032 1.015624 16.429687-10.4375 37.871093-3.015624 45.3125 13.625 1.707031 3.832032 2.683593 8.148438 2.683593 12.851563zm0 0" fill="#97bffd"/><path d="m174.464844 287.414062h-138.820313c-7.652343 0-20.011719-6.566406-25.421875-18.59375 7.441406-16.640624 28.878906-24.0625 45.300782-13.625.925781.582032 2.140624.0625 2.332031-1.015624 3.589843-19.949219 21.046875-35.09375 42.035156-35.09375 19.4375 0 35.847656 12.980468 41.015625 30.738281.222656.777343.988281 1.277343 1.769531 1.109375 20.40625-4.34375 37.1875 15.535156 30.753907 34.5-.292969.863281.210937 1.761718 1.035156 1.980468zm0 0" fill="#b9d3fd"/><path d="m501.773438 268.820312c-5.410157 12.027344-17.769532 18.59375-25.421876 18.59375h-138.832031c.824219-.21875 1.339844-1.105468 1.046875-1.980468-6.4375-18.964844 10.347656-38.84375 30.75-34.5.785156.167968 1.539063-.332032 1.769532-1.109375 5.167968-17.757813 21.570312-30.738281 41.007812-30.738281 20.996094 0 38.445312 15.144531 42.035156 35.09375.199219 1.078124 1.417969 1.597656 2.332032 1.015624 16.429687-10.4375 37.871093-3.015624 45.3125 13.625zm0 0" fill="#b9d3fd"/><path d="m500.835938 254.429688c-.007813-.019532-.027344-.039063-.046876-.046876-.019531-.019531-.675781-.675781-.695312-.683593 5.148438-156.78125-136.859375-279.101563-292.132812-248.472657-4.082032.804688-6.738282 4.765626-5.933594 8.847657.804687 4.09375 4.765625 6.75 8.859375 5.945312 140.84375-27.773437 270.273437 80.386719 274.171875 218.835938.03125 1.175781.191406 4.996093.121094 5.941406-5.671876-1.851563-11.445313-2.355469-16.902344-1.65625-1.21875-116.339844-96.226563-210.601563-212.84375-210.601563-116.566406 0-211.554688 94.191407-212.84375 210.46875-6.789063-.398437-10.925782.070313-16.871094 2.164063.097656-98.820313 63.160156-186.285156 156.960938-217.679687 3.953124-1.328126 6.082031-5.601563 4.757812-9.554688-1.320312-3.941406-5.59375-6.074219-9.542969-4.757812-101.636719 34.03125-171.34375 131.503906-167.078125 241.605468-.011718 0-.011718 0 0 .007813-7.082031 7.332031-10.800781 17.332031-10.800781 25.785156-.636719 22.875 19.398437 39.929687 35.628906 39.929687h160.972657c24.859374 0 29.890624-39.722656-2.089844-40.5625-26.367188-46.136718 7.078125-104.5625 60.90625-104.5625s87.265625 58.433594 60.910156 104.5625c-.425781.082032-1.125-.171874-4.054688.230469 0 0 0 0-.007812 0-16.515625 2.75-22.917969 22.695313-11.234375 34.378907 3.65625 3.695312 8.804687 5.953124 14.332031 5.953124h160.972656c14.53125 0 35.648438-15.132812 35.648438-38.835937 0-9.722656-3.691406-19.769531-11.164062-27.242187zm-245.402344-206.808594c104.652344 0 190.578125 81.695312 197.347656 184.675781-4.765625-6.46875-10.363281-11.53125-18.714844-15.707031-6.164062-38.363282-24.445312-72.742188-50.761718-99.058594-76.523438-76.527344-202.988282-69.605469-270.351563 16.359375-2.574219 3.28125-1.992187 8.015625 1.285156 10.589844 3.28125 2.566406 8.015625 1.992187 10.589844-1.285157 31.6875-40.445312 79.289063-63.636718 130.605469-63.636718 79.964844 0 146.886718 56.886718 162.433594 132.316406-.914063-.304688-9.046876-.925781-17.046876.945312-14.890624-66.53125-74.421874-116.398437-145.386718-116.398437-70.882813 0-130.355469 49.75-145.335938 116.167969-5.035156-1.089844-11.378906-1.394532-17.105468-.5625 3.1875-15.597656 8.597656-30.691406 16.089843-44.699219 1.960938-3.671875.570313-8.234375-3.097656-10.207031-3.671875-1.960938-8.246094-.574219-10.207031 3.097656-9.484375 17.738281-15.917969 37.074219-19.054688 56.984375-.03125.011719-.0625.03125-.09375.050781-7.769531 4.082032-13.902344 9.691406-18.640625 16.804688 5.890625-103.808594 92.199219-186.4375 197.445313-186.4375zm-56.34375 248.039062c4.574218 2.285156 3.074218 9.765625-2.472656 9.765625-168.210938-.011719-160.992188.027344-161.679688-.03125-3.050781-.339843-6.167969-1.769531-8.726562-3.507812h-.011719c-3.019531-2.085938-5.621094-4.5625-7.589844-7.765625-12.621094-20.269532 9.542969-43.28125 29.28125-34.429688 5.0625 2.09375 6.503906 5.160156 10.890625 4.285156.011719.007813.019531 0 .019531 0 3.617188-.574218 5.824219-3.632812 6.183594-6.507812 4.035156-31.585938 44.25-41.582031 62.609375-17.375 7.707031 9.566406 4.550781 15.484375 10.832031 18.148438 3.246094 1.386718 6.144531-.351563 9.257813-.351563 13.621094-.761719 23.507812 13.914063 18.03125 26.609375-2.136719 5.070312 1.570312 10.527344 6.929687 10.527344 25.558594.011718 24.847657-.28125 26.445313.632812zm56.34375-135.363281c-49.382813 0-88.480469 42.214844-84.910156 90.90625-4.886719-4.234375-10.515626-6.929687-17.027344-7.984375 1.550781-73.246094 78.035156-120.929688 144.234375-90.582031 3.789062 1.730469 8.265625.070312 9.996093-3.722657 1.738282-3.78125.070313-8.265624-3.710937-9.996093-71.308594-32.648438-154.78125 13.464843-164.695313 91.679687-4.066406-5.125-9.117187-9.441406-14.945312-12.699218 12.722656-60.675782 66.660156-106.390626 131.058594-106.390626 64.609375 0 118.679687 45.996094 131.179687 106.964844-4.886719 2.773438-10.5625 7.488282-14.914062 13.402344-3.398438-29.269531-17.769531-56.320312-40.585938-75.6875-3.175781-2.707031-7.933593-2.316406-10.628906.863281-2.695313 3.167969-2.3125 7.933594.867187 10.628907 22.394532 19.027343 35.457032 46.527343 36.019532 75.730468-6.558594 1.289063-12.140625 4.207032-17.09375 8.898438v-.007813c3.960937-50.050781-35.648438-92.003906-84.84375-92.003906zm220.917968 145.128906h-160.972656c-3.789062 0-6.226562-3.917969-4.789062-7.210937.8125-1.960938 2.738281-3.1875 4.789062-3.1875 25.648438-.019532 24.585938.117187 25.914063-.25 3.933593-.945313 6.933593-5.621094 4.976562-10.277344-6.148437-14.335938 6.8125-30.085938 22.496094-25.945312 4.023437 1.078124 8.226563-1.378907 9.238281-5.441407 4.164063-16.640625 20.148438-28.042969 36.957032-26.367187.804687.324218 28.480468 2.722656 32.046874 30.722656.449219 3.574219 3.214844 6.035156 6.183594 6.507812 0 0 .011719.007813.023438 0 3.90625.78125 5.761718-1.726562 9.128906-3.460937 13.320312-6.90625 29.992188.601563 33.757812 14.871094 4.261719 14.933593-8.402343 30.039062-19.75 30.039062zm0 0"/></svg>