<?xml version="1.0" encoding="UTF-8" standalone="no"?>
<!-- Generator: Adobe Illustrator 19.0.0, SVG Export Plug-In . SVG Version: 6.00 Build 0)  -->

<svg
   xmlns:dc="http://purl.org/dc/elements/1.1/"
   xmlns:cc="http://creativecommons.org/ns#"
   xmlns:rdf="http://www.w3.org/1999/02/22-rdf-syntax-ns#"
   xmlns:svg="http://www.w3.org/2000/svg"
   xmlns="http://www.w3.org/2000/svg"
   xmlns:sodipodi="http://sodipodi.sourceforge.net/DTD/sodipodi-0.dtd"
   xmlns:inkscape="http://www.inkscape.org/namespaces/inkscape"
   version="1.1"
   id="Capa_1"
   x="0px"
   y="0px"
   viewBox="0 0 512 512"
   style="enable-background:new 0 0 512 512;"
   xml:space="preserve"
   sodipodi:docname="uno.svg"
   inkscape:version="0.92.1 r15371"><metadata
     id="metadata55"><rdf:RDF><cc:Work
         rdf:about=""><dc:format>image/svg+xml</dc:format><dc:type
           rdf:resource="http://purl.org/dc/dcmitype/StillImage" /></cc:Work></rdf:RDF></metadata><defs
     id="defs53" /><sodipodi:namedview
     pagecolor="#ffffff"
     bordercolor="#666666"
     borderopacity="1"
     objecttolerance="10"
     gridtolerance="10"
     guidetolerance="10"
     inkscape:pageopacity="0"
     inkscape:pageshadow="2"
     inkscape:window-width="1366"
     inkscape:window-height="706"
     id="namedview51"
     showgrid="false"
     inkscape:zoom="0.4609375"
     inkscape:cx="256"
     inkscape:cy="256"
     inkscape:window-x="-8"
     inkscape:window-y="-8"
     inkscape:window-maximized="1"
     inkscape:current-layer="Capa_1" /><g
     id="g6"
     style="fill:#000000"><g
       id="g4"
       style="fill:#000000"><path
         d="M504.5,0H7.5C3.358,0,0,3.358,0,7.5v497c0,4.142,3.358,7.5,7.5,7.5h497c4.142,0,7.5-3.358,7.5-7.5V7.5    C512,3.358,508.642,0,504.5,0z M497,497H15V15h482V497z"
         id="path2"
         style="fill:#000000" /></g></g><g
     id="g12"
     style="fill:#000000"><g
       id="g10"
       style="fill:#000000"><path
         d="M474.5,30h-437c-4.142,0-7.5,3.358-7.5,7.5v45c0,4.142,3.358,7.5,7.5,7.5c4.142,0,7.5-3.358,7.5-7.5V45h422v422H45V112.5    c0-4.142-3.358-7.5-7.5-7.5c-4.142,0-7.5,3.358-7.5,7.5v362c0,4.142,3.358,7.5,7.5,7.5h437c4.142,0,7.5-3.358,7.5-7.5v-437    C482,33.358,478.642,30,474.5,30z"
         id="path8"
         style="fill:#000000" /></g></g><g
     id="g18"
     style="fill:#000000"><g
       id="g16"
       style="fill:#000000"><path
         d="M274.758,114.433c-2.832-0.951-5.777-1.433-8.755-1.433c-8.56,0-16.755,4.073-21.922,10.896l-50,66    c-9.156,12.087-6.772,29.37,5.314,38.526c4.82,3.651,10.556,5.581,16.588,5.581c8.698,0,16.693-3.972,21.938-10.895l0.579-0.764    V371.5c0,15.164,12.336,27.5,27.5,27.5s27.5-12.336,27.5-27.5V140.501C293.5,128.676,285.969,118.2,274.758,114.433z     M278.501,371.5c0,6.893-5.607,12.5-12.5,12.5s-12.5-5.607-12.5-12.5V200.022c0-3.222-2.058-6.083-5.111-7.109    c-0.785-0.264-1.59-0.391-2.388-0.391c-2.303,0-4.534,1.064-5.979,2.972l-14.058,18.555c-2.384,3.147-6.022,4.953-9.98,4.953    c-2.736,0-5.34-0.877-7.532-2.537c-5.494-4.162-6.578-12.018-2.416-17.512l50-66c2.349-3.101,6.075-4.953,9.966-4.953    c1.351,0,2.69,0.22,3.979,0.652c5.095,1.712,8.519,6.474,8.519,11.849V371.5z"
         id="path14"
         style="fill:#000000" /></g></g><g
     id="g20" /><g
     id="g22" /><g
     id="g24" /><g
     id="g26" /><g
     id="g28" /><g
     id="g30" /><g
     id="g32" /><g
     id="g34" /><g
     id="g36" /><g
     id="g38" /><g
     id="g40" /><g
     id="g42" /><g
     id="g44" /><g
     id="g46" /><g
     id="g48" /></svg>