<?xml version="1.0" encoding="UTF-8" standalone="no"?>
<!-- Generator: Adobe Illustrator 19.0.0, SVG Export Plug-In . SVG Version: 6.00 Build 0)  -->

<svg
   xmlns:dc="http://purl.org/dc/elements/1.1/"
   xmlns:cc="http://creativecommons.org/ns#"
   xmlns:rdf="http://www.w3.org/1999/02/22-rdf-syntax-ns#"
   xmlns:svg="http://www.w3.org/2000/svg"
   xmlns="http://www.w3.org/2000/svg"
   xmlns:sodipodi="http://sodipodi.sourceforge.net/DTD/sodipodi-0.dtd"
   xmlns:inkscape="http://www.inkscape.org/namespaces/inkscape"
   version="1.1"
   id="Layer_1"
   x="0px"
   y="0px"
   viewBox="0 0 485.449 485.449"
   style="enable-background:new 0 0 485.449 485.449;"
   xml:space="preserve"
   sodipodi:docname="alarma_activada.svg"
   inkscape:version="0.92.1 r15371"><metadata
     id="metadata39"><rdf:RDF><cc:Work
         rdf:about=""><dc:format>image/svg+xml</dc:format><dc:type
           rdf:resource="http://purl.org/dc/dcmitype/StillImage" /><dc:title></dc:title></cc:Work></rdf:RDF></metadata><defs
     id="defs37" /><sodipodi:namedview
     pagecolor="#ffffff"
     bordercolor="#666666"
     borderopacity="1"
     objecttolerance="10"
     gridtolerance="10"
     guidetolerance="10"
     inkscape:pageopacity="0"
     inkscape:pageshadow="2"
     inkscape:window-width="1366"
     inkscape:window-height="706"
     id="namedview35"
     showgrid="false"
     inkscape:zoom="0.48614787"
     inkscape:cx="242.7245"
     inkscape:cy="242.7245"
     inkscape:window-x="-8"
     inkscape:window-y="-8"
     inkscape:window-maximized="1"
     inkscape:current-layer="Layer_1" /><path
     d="M470.225,385.449h-25v-60.208l-30-30v-75.607c0-78.331-52.922-146.484-127.5-166.558V45c0-24.813-20.187-45-45-45  c-24.813,0-45,20.187-45,45v8.076c-74.579,20.074-127.5,88.227-127.5,166.558v75.607l-30,30v60.208h-25v30h143.852  c7.108,39.736,41.898,70,83.648,70s76.539-30.264,83.648-70h143.852V385.449z M70.225,337.668l30-30v-88.034  c0-68.176,48.508-127.015,115.341-139.905l12.159-2.345V45c0-8.271,6.729-15,15-15c8.271,0,15,6.729,15,15v32.383l12.159,2.345  c66.833,12.89,115.341,71.729,115.341,139.905v88.034l30,30v47.781h-345V337.668z M242.725,455.449  c-25.127,0-46.356-16.943-52.904-40h105.807C289.081,438.506,267.851,455.449,242.725,455.449z"
     id="path2"
     style="fill:#ffffff" /><g
     id="g4" /><g
     id="g6" /><g
     id="g8" /><g
     id="g10" /><g
     id="g12" /><g
     id="g14" /><g
     id="g16" /><g
     id="g18" /><g
     id="g20" /><g
     id="g22" /><g
     id="g24" /><g
     id="g26" /><g
     id="g28" /><g
     id="g30" /><g
     id="g32" /></svg>